<svg width="42" height="42" viewBox="0 0 42 42" xmlns="http://www.w3.org/2000/svg"><path d="M11.21 33.05l-.668 1.92h-4.17V21.603l4.119-9.63s1.579-4.368 5.458-4.368H27.1c4.074 0 5.763 4.277 5.763 4.277l3.798 9.721v13.369h-4.33l-.496-2.185m-22.21-3.231l2.769.601h17.942l3.515-.696M8.255 16.688h-3.74m30.348 0h3.74m-28.87 5.246l3.764.62.482 2.239m19.656-2.859l-3.765.62-.566 2.442m-12.455-.301h9.709l.787-3.044H16.163c0 .176.686 3.044.686 3.044z" stroke="#11A3EB" stroke-width="1.2" fill="none" stroke-linecap="round" stroke-linejoin="round"/></svg>
