<svg width="30" height="19" viewBox="0 0 30 19" xmlns="http://www.w3.org/2000/svg" xmlns:xlink="http://www.w3.org/1999/xlink"><defs><rect id="a" width="30" height="19" rx="1.32"/><mask id="b" x="0" y="0" width="30" height="19" fill="#fff"><use xlink:href="#a"/></mask></defs><g fill="none" fill-rule="evenodd"><use stroke="#D2D3DE" mask="url(#b)" fill="#FFF" xlink:href="#a"/><rect fill="#FFBF10" x="13.53" y="9.05" width="5.74" height=".9" rx=".45"/><g transform="translate(4 2)"><path d="M14.97 14.3c3.66 0 6.62-3.05 6.62-6.8S18.62.7 14.96.7c-3.65 0-6.62 3.05-6.62 6.8s2.97 6.8 6.62 6.8z" fill="#CC0001"/><ellipse fill="#0066CB" cx="7.03" cy="7.5" rx="6.62" ry="6.79"/><rect fill="#CC0001" x="10.12" y="3.43" width="3.53" height=".9" rx=".45"/><rect fill="#CC0001" x="10.12" y="10.67" width="3.53" height=".9" rx=".45"/><rect fill="#CC0001" x="9.24" y="5.24" width="5.29" height=".9" rx=".45"/><rect fill="#CC0001" x="9.24" y="8.86" width="5.29" height=".9" rx=".45"/><rect fill="#FFF" x="3.06" y="6.6" width="15.88" height="1.81" rx=".88"/></g></g></svg>
