<svg width="43" height="43" viewBox="0 0 43 43" xmlns="http://www.w3.org/2000/svg"><defs><linearGradient x1="50%" y1="100%" x2="50%" y2="-43.46%" id="a"><stop stop-color="#11A3EB" offset="0%"/><stop stop-color="#24BDFD" offset="100%"/></linearGradient></defs><g fill="none" fill-rule="evenodd"><ellipse cx="20" cy="20" rx="20" ry="20" fill="url(#a)" transform="translate(.5 .5)"/><g stroke-linecap="round" stroke="#FFF" stroke-width="1.176" stroke-linejoin="round"><path d="M15.927 14.147l2.08.815.507 1.748 2.15 7.69m-5.712 1.071a3.711 3.711 0 0 1-3.221 1.857c-2.045 0-3.702-1.639-3.702-3.661 0-2.022 1.657-3.662 3.702-3.662.156 0 .31.01.462.029"/><path d="M17.052 24.685c.069-.555-.34-1.061-.911-1.131l-1.337.003-3.008.007a.48.48 0 0 0-.54.41.48.48 0 0 0 .425.527l4.213 1.061c.572.07 1.09-.322 1.158-.877zm-4.69-7.228l2.904 6.008m-4.324-6.377h2.76"/><path d="M17.041 24.46h8.915l3.464-5.53m-.823 4.417a2.574 2.574 0 0 0-.713 1.784c0 1.416 1.131 2.563 2.527 2.563 1.395 0 2.527-1.147 2.527-2.563 0-1.415-1.132-2.563-2.527-2.563-.225 0-.442.03-.65.086m.603 2.324l-2.929-2.827m1.342-2.366l-9.643-.894"/></g></g></svg>
