<svg width="42" height="42" viewBox="0 0 42 42" xmlns="http://www.w3.org/2000/svg"><g transform="translate(1 7)" stroke="#11A3EB" stroke-width="1.25" fill="none" fill-rule="evenodd"><path stroke-linecap="round" stroke-linejoin="round" d="M12.593 18.454h5.012l12.16-8.106 5.723 10.348"/><path d="M34.241 18.642a4.025 4.025 0 0 0-2.302 3.642 4.015 4.015 0 0 0 4.006 4.024 4.015 4.015 0 0 0 4.007-4.024 4.02 4.02 0 0 0-3.26-3.953m-11.507 1.215l6.658-4.48m-16.961 5.63h7.441" stroke-linecap="round" stroke-linejoin="round"/><path d="M12.593 18.365a5.007 5.007 0 0 0-3.196-2.489c-2.716-.677-5.478 1.022-6.17 3.794-.69 2.773.95 5.57 3.666 6.246 2.716.678 5.478-1.021 6.17-3.794" stroke-linecap="round"/><path d="M3.434 18.26H1.468C.658 18.26 0 17.613 0 16.815V1.447C0 .648.663 0 1.468 0H12.63c.81 0 1.468.65 1.468 1.447v13.524" stroke-linecap="round"/><ellipse cx="23.95" cy="20.632" rx="1.627" ry="1.661"/><path d="M17.5 9.927h3.75m6.225-5.328l2.29 1.141v4.608m-10.304 0l3.922 8.67" stroke-linecap="round" stroke-linejoin="round"/></g></svg>
