<svg width="16" height="16" viewBox="0 0 16 16" xmlns="http://www.w3.org/2000/svg"><g transform="translate(1 1)" stroke="#8F96A0" fill="none" fill-rule="evenodd"><path d="M2.315 4.046a5.26 5.26 0 0 0-.77 1.732c-.427.037-.857.096-1.03.184C.173 6.135 0 6.364 0 7s.17.866.514 1.035c.176.087.604.146 1.03.184a5.26 5.26 0 0 0 .77 1.733c-.289.34-.57.707-.634.9-.12.363-.08.648.37 1.098.45.45.734.491 1.096.368.207-.07.613-.387.972-.694a5.69 5.69 0 0 0 1.645.636c.035.484.098 1.025.199 1.225.173.342.402.515 1.038.515s.866-.17 1.035-.514c.1-.203.164-.742.2-1.225a5.69 5.69 0 0 0 1.645-.636c.36.309.766.627.971.695.364.12.649.08 1.099-.37.45-.45.491-.734.368-1.096-.065-.193-.346-.56-.633-.9a5.26 5.26 0 0 0 .77-1.732c.427-.037.857-.096 1.03-.184C13.827 7.865 14 7.636 14 7s-.17-.866-.514-1.035c-.176-.087-.604-.146-1.03-.184a5.26 5.26 0 0 0-.77-1.733c.289-.34.57-.707.634-.9.12-.363.08-.648-.37-1.098-.45-.45-.734-.491-1.096-.368-.207.07-.613.387-.972.694a5.69 5.69 0 0 0-1.645-.636C8.202 1.256 8.14.715 8.038.515 7.865.173 7.636 0 7 0s-.866.17-1.035.514c-.1.203-.164.742-.2 1.225a5.69 5.69 0 0 0-1.645.636c-.36-.309-.766-.627-.971-.695-.364-.12-.649-.08-1.099.37-.45.45-.491.734-.368 1.096.065.193.346.56.633.9z"/><circle cx="7" cy="7" r="3"/></g></svg>
