<svg width="42" height="42" viewBox="0 0 42 42" xmlns="http://www.w3.org/2000/svg"><g stroke="#6E7F8F" fill="none" fill-rule="evenodd"><path d="M21 1C9.954 1 1 9.954 1 21c0 11.045 8.954 20 20 20 11.045 0 20-8.955 20-20C41 9.954 32.045 1 21 1"/><path d="M26.909 18.197c0 3.423-2.71 6.197-6.05 6.197-3.342 0-6.051-2.774-6.051-6.197S17.518 12 20.858 12c3.342 0 6.05 2.774 6.05 6.197zm5.808 18.646v-1.98c0-2.734-2.164-4.95-4.833-4.95H13.832c-2.669 0-4.832 2.216-4.832 4.95v1.98" stroke-linecap="round" stroke-linejoin="round"/></g></svg>
