<?xml version="1.0" encoding="UTF-8"?>
<svg width="392px" height="112px" viewBox="0 0 392 112" version="1.1" xmlns="http://www.w3.org/2000/svg" xmlns:xlink="http://www.w3.org/1999/xlink">
    <!-- Generator: Sketch 41.2 (35397) - http://www.bohemiancoding.com/sketch -->
    <title>logo</title>
    <desc>Created with Sketch.</desc>
    <defs>
        <linearGradient x1="0%" y1="58.7888241%" x2="100%" y2="58.7888241%" id="linearGradient-1">
            <stop stop-color="#FF8A67" offset="0%"></stop>
            <stop stop-color="#FF1337" offset="100%"></stop>
        </linearGradient>
    </defs>
    <g id="Final-Logo" stroke="none" stroke-width="1" fill="none" fill-rule="evenodd">
        <g id="logo-with-right-gradient-copy-3" transform="translate(-204.000000, -244.000000)" fill="url(#linearGradient-1)">
            <g id="logo" transform="translate(204.000000, 244.000000)">
                <path d="M14.1871512,87.154023 L0,96.0367816 C4.08998954,106.206897 16.8712069,112 29.2689877,112 C44.6064484,112 60.0717214,100.8 61.8610918,88.183908 C64.928584,67.3287356 28.1186781,66.4275862 29.2689877,58.0597701 C29.6524242,55.0988506 32.2086676,52.3954023 37.8324033,52.3954023 C43.5839511,52.3954023 47.9295649,53.8114943 52.2751788,58.1885057 L65.4398327,49.5632184 C60.0717214,40.6804598 48.4408136,35.7885057 37.5767789,35.7885057 C23.1340033,35.7885057 10.4805982,48.2758621 8.94685212,58.8321839 C6.51842083,77.1126437 37.9602154,79.3011494 39.877398,87.7977011 C40.2608346,88.0551724 40.3886467,88.3126437 40.3886467,88.6988506 C39.877398,91.9172414 36.5542815,94.6206897 29.6524242,94.6206897 C22.878379,94.6206897 17.8937042,92.3034483 14.1871512,87.154023 Z M86.8004301,110.841379 L91.7851049,75.3103448 C92.1685414,72.8643678 92.4241658,70.5471264 92.9354145,68.4873563 C94.9804092,58.8321839 100.604145,53.9402299 109.16756,53.9402299 C119.009098,53.9402299 122.843463,59.862069 121.054093,72.3494253 L115.813793,110.841379 L136.391553,110.841379 L142.143101,69.1310345 C145.082781,48.5333333 133.579686,35.5310345 111.723804,35.6597701 C104.566322,35.6597701 98.4313379,37.5908046 93.318851,40.6804598 L93.8300997,36.3034483 L75.9363954,36.3034483 L65.5836094,110.841379 L86.8004301,110.841379 Z M168.975657,73.8942529 C170.637216,62.1793103 179.200631,54.4551724 189.297793,54.4551724 C199.267142,54.583908 205.529939,62.1793103 203.868381,73.8942529 L203.868381,74.2804598 C202.07901,85.737931 194.026843,93.3333333 183.801869,93.3333333 C173.321271,93.3333333 167.314099,85.6091954 168.975657,73.8942529 Z M228.053324,45.5202107 C225.614049,43.7984906 217.080964,40.2298851 211.089768,38.2183908 C205.098573,36.2068966 197.605584,35.5310345 190.064666,35.6597701 C188.275295,35.6597701 186.741549,35.7885057 185.335615,35.9172414 C166.547226,37.462069 150.187268,54.3264368 147.503212,73.8942529 C144.819157,93.462069 156.322252,110.326437 174.727205,111.871264 C184.952179,112.643678 193.004346,109.167816 199.522767,103.632184 L198.500269,110.841379 L219.078029,110.841379 L228.053324,45.5202107 Z M287.617331,73.8942529 C285.955773,85.6091954 277.903606,93.3333333 267.423008,93.3333333 C258.348343,93.3333333 252.341171,87.154023 252.341171,77.4988506 L253.363669,70.2896552 C256.175536,60.6344828 263.844267,54.4551724 272.918931,54.4551724 C283.016093,54.583908 289.278889,62.1793103 287.617331,73.8942529 Z M242.755258,0 L227.289985,110.841379 L240.454639,110.841379 C241.860573,104.147126 240.454639,110.841379 241.860573,104.147126 C246.97306,108.395402 254.258354,111.356322 264.227703,112 C266.40051,112 268.701129,112 271.129561,111.871264 C289.151077,110.712644 304.999787,95.1356322 308.578527,76.4689655 C308.961964,74.4091954 309.217588,72.3494253 309.217588,70.2896552 C310.240086,52.5241379 298.992614,37.2045977 281.737971,35.9172414 C280.332037,35.6597701 278.798291,35.6597701 277.264545,35.6597701 C271.512997,35.6597701 264.483328,36.8183908 257.837095,38.8781609 L263.333018,0 L242.755258,0 Z M370.335376,73.8942529 C368.673818,85.6091954 360.621651,93.3333333 350.141053,93.3333333 C341.066389,93.3333333 335.059216,87.154023 335.059216,77.4988506 L336.081714,70.2896552 C338.893582,60.6344828 346.562312,54.4551724 355.636976,54.4551724 C365.734138,54.583908 371.996934,62.1793103 370.335376,73.8942529 Z M325.473303,0 L310.00803,110.841379 L323.172684,110.841379 C323.300496,109.811494 323.172684,110.081504 324.578618,104.147126 C329.691105,108.395402 336.976399,111.356322 346.945749,112 C349.118555,112 351.419175,112 353.847606,111.871264 C371.869122,110.712644 387.717832,95.1356322 391.296573,76.4689655 C391.680009,74.4091954 391.935633,72.3494253 391.935633,70.2896552 C392.958131,52.5241379 381.71066,37.2045977 364.456016,35.9172414 C363.050082,35.6597701 361.516336,35.6597701 359.98259,35.6597701 C354.231042,35.6597701 347.201373,36.8183908 340.55514,38.8781609 L346.051063,0 L325.473303,0 Z" id="wordmark"></path>
            </g>
        </g>
    </g>
</svg>