<svg width="42" height="42" viewBox="0 0 42 42" xmlns="http://www.w3.org/2000/svg"><path d="M34.308 20.369s-5.803-8.523-5.9-8.655l1.506-.249-.123-2.957-1.413-.343-2.73 1.651-2.924.006m8.645 12.024c-1.056.494-4.63 6.75-4.63 6.75l-21.77-.166-1.808-3.25 5.138-5.683h6.986m11.104-5.794l2.218 5.18-3.98 6.046-8.306.014 3.7-5.134 1.286.032s1.08-2.705-2.331-4.603l-11.429-.055m21.23 11.63h2.428s1.167-2.489 3.349-2.489c2.181 0 3.318.25 3.318.25l1.567-.376s-.676-2.677-5.131-3.83m5.022 6.35c.325.633.509 1.352.509 2.114 0 2.527-2.022 4.576-4.517 4.576-2.275 0-4.158-1.705-4.471-3.922m-15.955 1.249c-.772 1.783-2.62 2.934-4.632 2.71-2.48-.277-4.269-2.178-3.996-4.69" stroke="#11A3EB" stroke-width="1.2" fill="none" stroke-linecap="round" stroke-linejoin="round"/></svg>
