<?xml version="1.0" encoding="UTF-8"?>
<svg width="32px" height="18px" viewBox="0 0 32 18" version="1.1" xmlns="http://www.w3.org/2000/svg" xmlns:xlink="http://www.w3.org/1999/xlink">
    <!-- Generator: Sketch 41.2 (35397) - http://www.bohemiancoding.com/sketch -->
    <title>Envelope Hand</title>
    <desc>Created with Sketch.</desc>
    <defs>
        <path d="M0.0031260848,6 L5.00758088,6 C5.55822542,6 6.00461102,6.44386482 6.00461102,7 C6.00461102,7.55228475 5.55157471,8 5.00758088,8 L1.00461102,8 L1.00461102,6 L0.0031260848,6 Z M1.00461102,8 L6.00706637,8 C6.55799506,8 7.00461102,8.44386482 7.00461102,9 C7.00461102,9.55228475 6.55829962,10 6.00706637,10 L1.00461102,10 L1.00461102,8 Z M1.00461102,10 L5.00758088,10 C5.55822542,10 6.00461102,10.4438648 6.00461102,11 C6.00461102,11.5522847 5.55157471,12 5.00758088,12 L1.00461102,12 L1.00461102,10 Z M1.00461102,12 L3.01383305,12 C3.56102461,12 4.00461102,12.4438648 4.00461102,13 C4.00461102,13.5522847 3.55363584,14 3.01383305,14 L0,14 L1.00461102,14 L1.00461102,12 Z" id="path-1"></path>
        <mask id="mask-2" maskContentUnits="userSpaceOnUse" maskUnits="objectBoundingBox" x="0" y="0" width="7.00461102" height="8" fill="white">
            <use xlink:href="#path-1"></use>
        </mask>
        <rect id="path-3" x="1" y="0" width="25" height="16" rx="2"></rect>
        <mask id="mask-4" maskContentUnits="userSpaceOnUse" maskUnits="objectBoundingBox" x="0" y="0" width="25" height="16" fill="white">
            <use xlink:href="#path-3"></use>
        </mask>
    </defs>
    <g id="New-Delivery" stroke="none" stroke-width="1" fill="none" fill-rule="evenodd">
        <g id="New-Delivery---Desktop" transform="translate(-705.000000, -645.000000)">
            <g id="New-Delivery-Sheet" transform="translate(640.000000, 56.000000)">
                <g id="Details" transform="translate(32.000000, 39.000000)">
                    <g id="Item-Details-Wide" transform="translate(0.000000, 488.000000)">
                        <g id="Small-Size" transform="translate(0.000000, 33.000000)">
                            <g id="Small-Label" transform="translate(33.000000, 26.000000)">
                                <g id="Envelope-Hand" transform="translate(0.000000, 3.000000)">
                                    <g id="Envelope-Copy" transform="translate(6.000000, 0.000000)" stroke="#000000">
                                        <use id="Combined-Shape" mask="url(#mask-2)" fill="#FFFFFF" xlink:href="#path-1"></use>
                                        <use id="Rectangle-3" mask="url(#mask-4)" stroke-width="2" fill="#FFFFFF" xlink:href="#path-3"></use>
                                        <polyline id="Path-4" points="1.3903374 1.50772525 13.4316275 9.19556034 25.4729175 1.61389624"></polyline>
                                    </g>
                                    <g id="Hand" transform="translate(0.000000, 4.000000)">
                                        <path d="M14.495389,6.14342841 C14.5877505,5.93985086 14.6402547,5.71458373 14.6398715,5.47675948 C14.6402547,4.57454942 13.9005963,3.84090918 12.9915446,3.84052866 L7.47438254,3.84090918 L8.05422876,2.66130091 C8.45969955,1.83633616 8.36657157,1.03991032 7.80013884,0.478264573 C7.15744082,-0.15948493 6.11233796,-0.15948493 5.46925669,0.478645092 C5.46619075,0.481308723 1.74490405,3.90788048 1.74298784,3.9101636 C0.618553731,5.02660575 0,6.50986801 0,8.08787946 C0,11.3481645 2.67120168,14 5.95405872,14 L11.6314162,14 C12.5400847,14 13.2793598,13.2655987 13.2797431,12.3641497 C13.2793598,12.1293696 13.2287718,11.9063856 13.139093,11.7043301 L13.2640301,11.7043301 C14.1723154,11.7043301 14.9115905,10.9699288 14.9115905,10.0684798 C14.9115905,9.81429324 14.8518047,9.57418588 14.7464129,9.35957328 C15.464993,9.18339308 15.9999998,8.53993579 15.9999998,7.7728099 C16.0003831,6.9185452 15.3369899,6.2161075 14.495389,6.14342841 Z" id="Combined-Shape" fill="#FFFFFF"></path>
                                        <path d="M14.495389,6.14342841 C14.5877505,5.93985086 14.6402547,5.71458373 14.6398715,5.47675948 C14.6402547,4.57454942 13.9005963,3.84090918 12.9915446,3.84052866 L7.47438254,3.84090918 L8.05422876,2.66130091 C8.45969955,1.83633616 8.36657157,1.03991032 7.80013884,0.478264573 C7.15744082,-0.15948493 6.11233796,-0.15948493 5.46925669,0.478645092 C5.46619075,0.481308723 1.74490405,3.90788048 1.74298784,3.9101636 C0.618553731,5.02660575 0,6.50986801 0,8.08787946 C0,11.3481645 2.67120168,14 5.95405872,14 L11.6314162,14 C12.5400847,14 13.2793598,13.2655987 13.2797431,12.3641497 C13.2793598,12.1293696 13.2287718,11.9063856 13.139093,11.7043301 L13.2640301,11.7043301 C14.1723154,11.7043301 14.9115905,10.9699288 14.9115905,10.0684798 C14.9115905,9.81429324 14.8518047,9.57418588 14.7464129,9.35957328 C15.464993,9.18339308 15.9999998,8.53993579 15.9999998,7.7728099 C16.0003831,6.9185452 15.3369899,6.2161075 14.495389,6.14342841 Z M14.3528227,8.43186845 L7.50312575,8.43186845 C7.23217315,8.43186845 7.01142535,8.65104728 7.01219184,8.92007407 C7.01180859,9.1898619 7.23140667,9.40827968 7.50312575,9.40827968 L13.2644134,9.40827968 C13.6304102,9.40827968 13.928573,9.70394279 13.928573,10.0680993 C13.928573,10.4314947 13.6304102,10.7271578 13.2644134,10.7271578 L7.50312575,10.7271578 C7.23140667,10.7271578 7.01180859,10.9455756 7.01180859,11.2153634 C7.01180859,11.4851513 7.23178991,11.7035691 7.50312575,11.7035691 L11.6314162,11.7035691 C11.9981795,11.7035691 12.2963423,11.9992322 12.2963423,12.3633887 C12.2963423,12.7267841 11.9981795,13.0224472 11.6314162,13.0224472 L5.95444196,13.0216862 C3.21387335,13.0216862 0.983784033,10.8085889 0.983784033,8.08673791 C0.983784033,6.77204546 1.49924548,5.53535938 2.43435768,4.60422988 L6.1809384,1.15216336 C6.44154344,0.911294963 6.8512299,0.917002745 7.10455333,1.16928671 C7.4318426,1.49272768 7.31993573,1.92651911 7.17008783,2.23283674 L6.37984137,3.84052866 L5.69077098,3.84052866 C5.41943514,3.84052866 5.19945383,4.05894645 5.19945383,4.32835375 C5.19945383,4.59814158 5.41943514,4.81617885 5.69115422,4.81655937 L6.65999179,4.81617885 C6.65999179,4.81693989 6.66037503,4.81655937 6.66037503,4.81655937 L12.9911613,4.81693989 C13.3579246,4.81617885 13.6560874,5.11260299 13.6560874,5.47599844 C13.6560874,5.83939389 13.3579246,6.13581804 12.9915446,6.13581804 L7.50312575,6.13581804 C7.23178991,6.13543752 7.01180859,6.35423583 7.01180859,6.62364313 C7.01180859,6.89305044 7.23217315,7.11222927 7.50312575,7.11184875 L14.3524394,7.11222927 C14.7184362,7.11184875 15.016599,7.40713133 15.016599,7.77128782 C15.016599,8.13582483 14.7184362,8.43186845 14.3528227,8.43186845 Z" id="Shape" fill="#000000"></path>
                                    </g>
                                </g>
                            </g>
                        </g>
                    </g>
                </g>
            </g>
        </g>
    </g>
</svg>