<svg width="42" height="42" viewBox="0 0 42 42" xmlns="http://www.w3.org/2000/svg"><path d="M12.168 37.701l-.607 1.703H7.773V27.842l1.487-8.169.738-12.206s.095-3.871 3.62-3.871h15.486c3.7 0 3.897 3.79 3.897 3.79l.732 12.442 1.466 8.014v11.562h-3.934l-.45-1.936m-20.265-2.77l2.516.534h16.3l3.195-.618M9.05 18.56H6.025v-2.577M33.949 18.5h3.024v-2.577M10.944 28.09l3.421.55v1.547m17.7-2.097l-3.42.55v1.651m-11.322 1.325h8.242l.302-2.989h-8.703c0 .134.159 2.989.159 2.989zM33.239 11.81s-3.643-1.39-11.684-1.39c-7.793 0-11.393 1.39-11.393 1.39m3.964 10.871h14.81" stroke="#11A3EB" stroke-width="1.2" fill="none" stroke-linecap="round" stroke-linejoin="round"/></svg>
