<svg width="43" height="43" viewBox="0 0 43 43" xmlns="http://www.w3.org/2000/svg"><defs><linearGradient x1="50%" y1="100%" x2="50%" y2="-43.46%" id="a"><stop stop-color="#11A3EB" offset="0%"/><stop stop-color="#24BDFD" offset="100%"/></linearGradient></defs><g transform="translate(.5 .5)" fill="none" fill-rule="evenodd"><ellipse fill="url(#a)" cx="20" cy="20" rx="20" ry="20"/><path d="M21.22 14.5l.63 2.737 3.562 3.814-1.103 1.292-4.37-3.467-.857-1.828m-3.852 3.814l-1.198-.253 1.482-4.129 2.932-4.391 1.324.52m-2.428 1.286v6.4L14.095 30.76l1.514.756 4.665-9.583m.315 3.91l2.995 5.61 1.576-.473-3.373-10.686m.908-11.291a1.702 1.702 0 1 1-3.405 0 1.702 1.702 0 0 1 3.405 0z" stroke="#FDFEFF" stroke-width="1.176" stroke-linecap="round" stroke-linejoin="round"/></g></svg>
