<svg width="42" height="42" viewBox="0 0 42 42" xmlns="http://www.w3.org/2000/svg"><path d="M18.976 28.1c1.324 0 2.398-1.018 2.398-2.273 0-1.256-1.074-2.274-2.398-2.274l-3.05.373-6.861.84c-.618 0-1.12.475-1.12 1.06 0 .587.502 1.062 1.12 1.062l9.911 1.213zm-3.158.132a7.752 7.752 0 0 1-2.12 3.324 7.497 7.497 0 0 1-5.102 2.002C4.401 33.558 1 30.097 1 25.827s3.4-7.731 7.596-7.731c.321 0 .639.02.95.06m24.902.394c3.617.597 6.374 3.706 6.374 7.453 0 4.173-3.42 7.555-7.64 7.555s-7.64-3.382-7.64-7.555c0-3.338 2.188-6.17 5.224-7.17M24.903 9l3.49 1.325.853 3.143-9.724 10.085m11.113-6.367l2.315 8.64-2.315-8.64zM11.65 13.548l4.63 10.005-4.63-10.005zm-1.852-.455h5.093-5.093z" stroke="#11A3EB" stroke-width="1.2" fill="none" stroke-linecap="round" stroke-linejoin="round"/></svg>
