<svg width="43" height="43" viewBox="0 0 43 43" xmlns="http://www.w3.org/2000/svg"><defs><linearGradient x1="50%" y1="100%" x2="50%" y2="-43.46%" id="a"><stop stop-color="#11A3EB" offset="0%"/><stop stop-color="#24BDFD" offset="100%"/></linearGradient></defs><g fill="none" fill-rule="evenodd"><path d="M20 40c11.046 0 20-8.954 20-20S31.046 0 20 0 0 8.954 0 20s8.954 20 20 20z" fill="url(#a)" transform="translate(.5 .5)"/><path d="M19.521 23.912a1.399 1.399 0 0 0 0-2.797l-1.778.23-4.001.516a.653.653 0 0 0 0 1.305l5.78.746zm-1.537-.111a4.54 4.54 0 0 1-4.312 3.125 4.536 4.536 0 1 1 .567-9.038m14.311.027a4.538 4.538 0 0 1-.75 9.01 4.537 4.537 0 0 1-1.436-8.84l2.186-.17zm-5.363-5.503l2.052.78.501 1.85-5.716 5.941m6.31-3.856L27.8 22.39l-1.465-5.262zm-11.122-1.856l2.876 5.822-2.876-5.822zm-1.104-.23h3.001-3z" stroke="#FDFEFF" stroke-width="1.176" stroke-linecap="round" stroke-linejoin="round"/></g></svg>
