<svg width="30" height="19" viewBox="0 0 30 19" xmlns="http://www.w3.org/2000/svg" xmlns:xlink="http://www.w3.org/1999/xlink"><defs><radialGradient cx="0%" cy="0%" fx="0%" fy="0%" r="125.53%" id="f"><stop stop-color="#93D3F6" offset="0%"/><stop stop-color="#2E77BE" offset="100%"/></radialGradient><linearGradient x1="5.97%" y1="8.4%" x2="94.47%" y2="92.02%" id="d"><stop stop-color="#8CCDF2" offset="0%"/><stop stop-color="#2E77BE" offset="100%"/></linearGradient><rect id="a" width="30" height="19" rx=".7"/><mask id="e" x="0" y="0" width="30" height="19" fill="#fff"><use xlink:href="#a"/></mask><path id="g" d="M3.8 7.23h21.6v5.54H3.8z"/><path d="M3.73 3.3l.35.92H6V.96l1.38 3.26h.8L9.57.96v3.26h.95V.07H9L7.82 2.9 6.6.06H5.07V4L3.48.06h-1.4L.4 4.22h1l.36-.9h1.97zM2.83.77l.36 1.38h-.7L2.83.76z" id="b"/><mask id="i" x="-.7" y="-.7" width="11.51" height="5.55"><path fill="#fff" d="M-.3-.63h11.5v5.55H-.3z"/><use xlink:href="#b"/></mask><path d="M16.68.07l-1.15 1.36L14.45.07h-3.6v4.15h3.54l1.13-1.36 1.1 1.36h1.13L16.1 2.14 17.47.52l.37-.45h-1.16zm-2.74 3.3h-2.2v-.84h1.96V1.7h-1.96V.92h2.23l.98 1.2-1 1.24z" id="c"/><mask id="j" x="-.7" y="-.7" width="8.37" height="5.55"><path fill="#fff" d="M10.17-.63h8.37v5.55h-8.37z"/><use xlink:href="#c"/></mask></defs><g fill="none" fill-rule="evenodd"><use stroke="url(#d)" mask="url(#e)" fill="url(#f)" xlink:href="#a"/><mask id="h" fill="#fff"><use xlink:href="#g"/></mask><g mask="url(#h)" stroke="#FFF" stroke-width="1.4"><g transform="translate(6.183 7.857)"><use mask="url(#i)" xlink:href="#b"/><use mask="url(#j)" xlink:href="#c"/></g></g></g></svg>
