<svg width="30" height="19" viewBox="0 0 30 19" xmlns="http://www.w3.org/2000/svg" xmlns:xlink="http://www.w3.org/1999/xlink"><defs><rect id="a" width="30" height="18.4" rx=".7"/><mask id="c" x="0" y="0" width="30" height="18.4" fill="#fff"><use xlink:href="#a"/></mask><rect id="b" width="30" height="18.4" rx=".7"/><mask id="d" x="0" y="0" width="30" height="18.4" fill="#fff"><use xlink:href="#b"/></mask><linearGradient x1="50%" y1="0%" x2="50%" y2="100%" id="e"><stop stop-color="#FFB603" offset="0%"/><stop stop-color="#FEAF46" offset="100%"/></linearGradient></defs><g fill="none" fill-rule="evenodd"><use stroke="#D2D3DE" mask="url(#c)" fill="#FFF" xlink:href="#a"/><path d="M11 18h18c.4 0 1-.5 1-.7V11s-6.7 5-19 7z" fill="#FFAF46"/><use stroke="#D2D3DE" mask="url(#d)" xlink:href="#b"/><path d="M13.5 0c-1 0-1.7.8-1.7 1.8s.7 1.7 1.7 1.7 1.8-.7 1.8-1.7S14.5 0 13.5 0" fill="url(#e)" transform="translate(1.462 6.857)"/><path d="M3 7H2v3.4h1c.6 0 1 0 1.3-.4.4-.3.6-.8.6-1.3C5 7.7 4 7 3 7zm1 2.4c-.2.2-.4.3-1 .3V7.5c.6 0 .8 0 1 .3.3.2.4.5.4 1 0 .2 0 .5-.4.7zM5.6 7h.7v3.4h-.7m2.6-2.1c-.4-.2-.5-.3-.5-.5s.2-.3.5-.3c.2 0 .3 0 .5.2l.3-.4C8.7 7 8.4 7 8 7c-.5 0-1 .3-1 1 0 .3.3.6 1 .8 0 0 .2 0 .3.2l.2.3c0 .3-.2.5-.5.5s-.5-.2-.6-.5l-.4.5c.2.4.6.6 1 .6.6 0 1-.5 1-1 0-.6 0-1-.8-1m1.6.3c0 1 .8 1.7 2 1.7l.8-.2v-.8c-.3.3-.6.4-1 .4-.6 0-1-.5-1-1 0-.8.4-1.3 1-1.3.4 0 .7 0 1 .4V7h-1c-1 0-1.8.7-1.8 1.7m9.4.5l-1-2.3h-.8l1.6 3.4h.4L21 7h-1l-1 2.2m4.7 1.2v-.6h-1.3v-1h1.3v-.5h-1.3v-.8h1.3V7h-2v3.4M27 8c0-.7-.6-1-1.5-1h-1v3.4h.7V9l1 1.4h1L26 9c.6-.2 1-.5 1-1zm-1.6.5h-.2v-1h.2c.5 0 .7 0 .7.5 0 .3 0 .5-.6.5z" fill="#0B1015"/></g></svg>
