<svg width="30" height="18" viewBox="0 0 30 18" xmlns="http://www.w3.org/2000/svg" xmlns:xlink="http://www.w3.org/1999/xlink"><defs><rect id="a" width="30" height="18" rx="1.3"/><mask id="b" x="0" y="0" width="30" height="18" fill="#fff"><use xlink:href="#a"/></mask></defs><g fill="none" fill-rule="evenodd"><path d="M.4 1.8V17c0 1 1 .6 2 .6H28c1 0 1.8.4 1.8-.6V1.8c0-1-.8-.6-1.8-.6C28 1.2.2.8.2 1.8z" fill="#ECF0F1"/><path d="M2.3 0c-1 0-2 0-2 1.4v2.2h29.4V1.4c0-.5-.5-.7-.7-1L28 0H2.4z" fill="#34495E"/><path d="M0 14v2c0 .8.8 1.6 2 1.6h26c1.2 0 2-.8 2-1.7v-2H0z" fill="#F1C40F"/><path d="M17.4 8.5c-.6-.3-1-.5-1-.8 0-.3.4-.7 1-.7.5 0 1 0 1.3.3h.2V6c-.2-.3-.7-.4-1.3-.4-1.7 0-3 1-3 2.3 0 1 1 1.4 1.6 1.8.7.4.8.5.8 1 0 .3-.4.6-1 .6s-1 0-1.5-.4h-.2l-.3 1.5c.4.2 1 .3 2 .3 1.7 0 3-1 3-2.3 0-1-.6-1.5-1.6-2zm6-2.7H22c-.3 0-.6 0-.8.5l-2.5 6.4h1.7l.4-1H23v1h2l-1.4-7zm-2 4.4l.6-2 .3-.5v.6l.4 2h-1.4zm-10 2.5H13l1-7h-1.7l-1 7zm-1.6-7l-1.6 4.8-.2-1c-.4-1-1.3-2.3-2.4-3L7 12.8h2l2.6-7H9.8z" fill="#34495E"/><path d="M7.4 6.4c0-.4-.5-.5-.8-.6H4V6c2 .5 3.5 2 4 3.6l-.6-3.2z" fill="#F1C40F"/><use stroke="#D2D3DE" mask="url(#b)" xlink:href="#a"/></g></svg>
