<svg width="30" height="19" viewBox="0 0 30 19" xmlns="http://www.w3.org/2000/svg" xmlns:xlink="http://www.w3.org/1999/xlink"><defs><rect id="a" width="30" height="19" rx="1.3"/><mask id="b" x="0" y="0" width="30" height="19" fill="#fff"><use xlink:href="#a"/></mask></defs><g fill="none" fill-rule="evenodd"><use stroke="#D2D3DE" mask="url(#b)" fill="#FFF" xlink:href="#a"/><rect fill="#FFBF10" x="13.5" y="9" width="5.7" height=".9" rx=".5"/><g transform="translate(4 2)"><path d="M15 14.3c3.6 0 6.6-3 6.6-6.8 0-3.7-3-6.8-6.6-6.8-3.7 0-6.6 3-6.6 6.8 0 3.7 3 6.8 6.6 6.8z" fill="#FFBF10"/><ellipse fill="#D41A1A" cx="7" cy="7.5" rx="6.6" ry="6.8"/><rect fill="#FFBF10" x="10.1" y="3.4" width="3.5" height=".9" rx=".5"/><rect fill="#FFBF10" x="10.1" y="10.7" width="3.5" height=".9" rx=".5"/><rect fill="#FFBF10" x="9.2" y="5.2" width="5.3" height=".9" rx=".5"/><rect fill="#FFBF10" x="9.2" y="8.9" width="5.3" height=".9" rx=".5"/><rect fill="#FFF" x="3.1" y="6.6" width="15.9" height="1.8" rx=".9"/></g></g></svg>
