<svg width="42" height="42" viewBox="0 0 42 42" xmlns="http://www.w3.org/2000/svg"><g stroke-width="1.29" stroke="#11A3EB" fill="none" fill-rule="evenodd" stroke-linecap="round" stroke-linejoin="round"><path d="M13.666 10L17 11.314l.815 2.818 3.447 12.396m-9.159 1.727a5.938 5.938 0 0 1-5.167 2.994C3.657 31.249 1 28.606 1 25.346s2.657-5.902 5.936-5.902c.251 0 .5.015.742.046"/><path d="M15.47 26.985c.11-.894-.544-1.71-1.46-1.823l-2.144.006-4.824.015a.771.771 0 0 0-.868.66.771.771 0 0 0 .682.85l6.756 1.707c.917.113 1.749-.521 1.859-1.415zM7.948 15.336l4.657 9.686m-6.934-9.846h4.425"/><path d="M15.453 26.626H29.75l5.555-8.917m-1.32 7.122a4.16 4.16 0 0 0-1.143 2.876c0 2.282 1.815 4.132 4.053 4.132s4.052-1.85 4.052-4.132c0-2.282-1.814-4.131-4.052-4.131-.36 0-.71.048-1.042.137m.97 3.75l-4.704-4.562m2.156-3.811L18.81 17.647"/></g></svg>
