<svg width="42" height="42" viewBox="0 0 42 42" xmlns="http://www.w3.org/2000/svg"><defs><linearGradient x1="50%" y1="100%" x2="50%" y2="-43.46%" id="a"><stop stop-color="#11A3EB" offset="0%"/><stop stop-color="#24BDFD" offset="100%"/></linearGradient></defs><g fill="none" fill-rule="evenodd"><ellipse cx="20" cy="20" rx="20" ry="20" fill="url(#a)"/><g transform="translate(7.53 12)" stroke="#FFF"><path stroke-linecap="round" stroke-linejoin="round" d="M7.87 11.204h3.133l7.6-4.921 3.577 6.282"/><path d="M21.4 11.318a2.44 2.44 0 0 0-1.438 2.212c0 1.349 1.121 2.443 2.504 2.443s2.504-1.094 2.504-2.443c0-1.194-.878-2.187-2.037-2.4m-7.193.737l4.162-2.72M9.301 12.588h4.651" stroke-width="1.176" stroke-linecap="round" stroke-linejoin="round"/><path d="M7.855 11.166A3.171 3.171 0 0 0 5.851 9.64c-1.698-.423-3.414.598-3.834 2.282-.42 1.683.616 3.39 2.314 3.814 1.697.423 3.413-.598 3.833-2.282" stroke-width="1.176" stroke-linecap="round"/><path d="M2.146 11.087H.917c-.506 0-.917-.394-.917-.879V.878C0 .394.415 0 .917 0h6.978c.506 0 .917.394.917.879v8.21" stroke-width="1.176" stroke-linecap="round"/><ellipse stroke-width="1.176" cx="14.969" cy="12.526" rx="1.017" ry="1.008"/><path d="M11 5.588h2.344m3.828-2.796l1.43.693v2.798M11.97 5.5l2.644 6.047" stroke-width="1.176" stroke-linecap="round" stroke-linejoin="round"/></g></g></svg>
