<svg width="43" height="43" viewBox="0 0 43 43" xmlns="http://www.w3.org/2000/svg"><defs><linearGradient x1="50%" y1="100%" x2="50%" y2="-43.46%" id="a"><stop stop-color="#11A3EB" offset="0%"/><stop stop-color="#24BDFD" offset="100%"/></linearGradient></defs><g fill="none" fill-rule="evenodd"><path d="M20 40c11.046 0 20-8.954 20-20S31.046 0 20 0 0 8.954 0 20s8.954 20 20 20z" fill="url(#a)" transform="translate(.5 .5)"/><path d="M13.18 27.433l-.45 1.255H9.911v-8.656l2.783-6.373s1.066-2.853 3.687-2.853h7.536c2.751 0 3.893 2.795 3.893 2.795l2.807 6.431v8.656h-2.926l-.335-1.427-14.177.172zm-.915-2.916l1.829.407h11.849l2.322-.471m-17.412-7.53H8.5h2.353zm18.353 0h2.353-2.353zm-17.412 2.824l2.503.409.32 1.473m14.118-1.882l-2.454.381-.37 1.501m-8.95.471h6.538l.53-2.353H16.5c0 .136.461 2.353.461 2.353z" stroke="#FFF" stroke-width="1.176" stroke-linecap="round" stroke-linejoin="round"/></g></svg>
