<svg width="44" height="49" viewBox="0 0 44 49" xmlns="http://www.w3.org/2000/svg" xmlns:xlink="http://www.w3.org/1999/xlink"><defs><linearGradient x1="50%" y1="-34.262%" x2="50%" y2="100%" id="c"><stop stop-color="#19E545" offset="0%"/><stop stop-color="#0BCE35" offset="100%"/></linearGradient><path d="M26.739 42h14.558A2.706 2.706 0 0 0 44 39.293V2.707A2.705 2.705 0 0 0 41.297 0H2.703A2.706 2.706 0 0 0 0 2.707v36.586A2.705 2.705 0 0 0 2.703 42H17.26l4.207 6.671c.294.467.775.46 1.064 0L26.74 42z" id="a"/><mask id="b" x="0" y="0" width="44" height="49.019" fill="#fff"><use xlink:href="#a"/></mask></defs><g fill="none" fill-rule="evenodd"><use stroke="#0ABF31" mask="url(#b)" stroke-width="2" fill="url(#c)" xlink:href="#a"/><path d="M13 30l4.503-16.602s2.126-1.14 4.345.44c2.633 1.876 5.292 4.93 9.571 2.86l-2.383 8.682s-2.843 1.786-6.398-.802c-1.469-1.069-2.282-2.38-3.994-2.251" stroke="#FFF" stroke-width="1.25" stroke-linecap="round" stroke-linejoin="round"/></g></svg>
