<svg width="75" height="70" viewBox="0 0 75 70" xmlns="http://www.w3.org/2000/svg"><g fill="#0A0B0C" fill-rule="evenodd"><path d="M52.417 9.303c-.251 0-.51.07-.783.213l-14.63 8.936-13.221-7.896 13.235-7.904.433.249a.75.75 0 0 1 .12.056L42.79 5.98c.521.283.928.294 1.326.058l.864-.494c.212-.126.337-.303.353-.498.014-.17-.061-.334-.227-.481l.003-.005a.965.965 0 0 0-.135-.095l-4.914-2.83-.002.002L37.707.28C37.38.09 36.855.054 36.46.19a1.234 1.234 0 0 0-.231.104l-7.745 4.655.004.006-7.186 4.296c-.518.337-.808.783-.82 1.258-.01.442.235.865.7 1.197l15.075 9.067c.398.238 1.077.237 1.475-.002l13.633-8.26v15.576L36.97 36.68l-14.394-8.595-.002-.553a.882.882 0 0 1-.012-.141v-4.757c0-.474-.229-.88-.606-1.084a1.168 1.168 0 0 0-.133-.095l-.704-.42a.906.906 0 0 0-.16-.075c-.348-.122-.662.063-.735.43l-.004.018.003 7.365c.071.45.369.911.722 1.123l15.272 9.112c.2.12.46.185.736.185.278 0 .54-.066.74-.186l15.27-9.142c.413-.247.737-.827.737-1.318l.004-17.88c0-.67-.482-1.365-1.288-1.365"/><path d="M35.228 29.833l-3.345-1.93c-.35-.202-.699.018-.699.42v1.325c0 .349.23.755.526.927l3.347 1.947a.545.545 0 0 0 .278.082.388.388 0 0 0 .313-.15.558.558 0 0 0 .107-.35v-1.346c0-.349-.232-.755-.527-.925m.527-3.989c0-.348-.233-.754-.529-.923L29.9 21.883c-.35-.2-.7.02-.7.422v1.327c0 .349.233.754.529.923l5.328 3.039c.092.052.186.08.275.08a.393.393 0 0 0 .315-.152.566.566 0 0 0 .109-.352v-1.326M18.933 50h-3.145v15.597c0 2.17 1.353 4.279 4.31 4.279h2.515v-2.667h-1.95c-1.132 0-1.73-.65-1.73-1.767V57.07H22.3v-2.79h-3.366V50zm55.197 7.07v-2.79h-3.365V50H67.62v15.597c0 2.17 1.352 4.279 4.308 4.279h2.516v-2.667h-1.95c-1.132 0-1.73-.65-1.73-1.767V57.07h3.366zM8.24 60.667l-2.233-.217c-1.635-.155-2.17-.745-2.17-1.706 0-1.24.88-2.046 2.956-2.046 1.353 0 2.768.34 3.837 1.147l1.95-1.954c-1.383-1.27-3.554-1.798-5.63-1.798-3.68 0-6.164 1.674-6.164 4.837 0 2.667 1.793 3.97 4.655 4.217l2.548.217c1.352.124 2.107.683 2.107 1.799 0 1.55-1.478 2.17-3.523 2.17-1.51 0-3.208-.34-4.434-1.612L0 67.736C1.73 69.504 4.026 70 6.322 70c4.246 0 6.887-1.674 6.887-5.023 0-2.698-1.73-4-4.969-4.31zm38.433-6.574c-2.705 0-4.34.682-5.755 2.295l2.075 1.922c.975-1.116 1.95-1.52 3.617-1.52 2.454 0 3.271.869 3.271 2.915v.776h-4.12c-3.963 0-5.944 2.077-5.944 4.682 0 3.1 2.516 4.837 5.284 4.837 2.233 0 3.617-.527 4.812-1.798v1.58h3.113V59.458c0-3.628-2.044-5.364-6.353-5.364zm12.99.186h-3.114v15.504h3.145v-7.535c0-3.38 2.359-5.302 5.126-5.302v-2.853c-1.95 0-3.837.775-5.158 2.016v-1.83zm-25.35 10.17c0 1.458-1.29 2.543-2.988 2.543s-3.02-1.085-3.02-2.542V54.28h-3.113v10.046c0 3.255 2.61 5.674 6.133 5.674s6.165-2.419 6.165-5.674V54.279h-3.177v10.17zm15.568-.837c0 2.357-2.107 3.597-3.994 3.597-1.573 0-3.02-.527-3.02-2.077 0-1.396 1.133-2.17 3.397-2.17h3.617v.65z"/></g></svg>
