<svg width="25" height="29" viewBox="0 0 25 29" xmlns="http://www.w3.org/2000/svg"><g fill="#FFF" fill-rule="evenodd"><path d="M22.706 6.854l-10.574 6.51-9.558-5.752 9.568-5.759.312.181a.54.54 0 0 1 .087.042l3.772 2.202c.377.206.671.214.958.042l.625-.36c.153-.092.244-.22.255-.362.01-.124-.044-.244-.164-.351a.432.432 0 0 0-.096-.073L14.34 1.112l-1.7-.987c-.237-.138-.616-.164-.903-.065a.889.889 0 0 0-.167.075L5.972 3.526.78 6.66c-.374.245-.584.57-.592.917-.008.322.17.63.505.872l10.897 6.605c.288.174.78.173 1.067-.002l9.854-6.017v11.347l-10.404 6.262-10.404-6.262-.002-.403a.647.647 0 0 1-.009-.102V16.41c0-.345-.165-.641-.437-.79a.844.844 0 0 0-.096-.069l-.51-.305a.653.653 0 0 0-.115-.055c-.252-.09-.479.046-.531.313v5.378c.05.328.265.664.52.819l11.04 6.638c.144.087.333.135.532.135.201 0 .39-.048.535-.136l11.038-6.66c.299-.18.533-.602.533-.96l.002-13.025c0-.49-.348-.995-.93-.995-.182 0-.37.05-.567.155z"/><path d="M10.84 21.237l-2.38-1.374c-.25-.143-.497.013-.497.3v.943c0 .248.163.537.374.66l2.383 1.385c.066.04.132.059.197.059.09 0 .168-.038.223-.108a.397.397 0 0 0 .076-.248v-.959a.825.825 0 0 0-.375-.658m.374-2.839a.823.823 0 0 0-.376-.658l-3.792-2.162c-.25-.143-.498.014-.498.3v.945a.82.82 0 0 0 .376.657l3.793 2.163a.395.395 0 0 0 .196.057.28.28 0 0 0 .224-.108.398.398 0 0 0 .077-.25v-.944"/></g></svg>
