<svg width="41" height="41" viewBox="0 0 41 41" xmlns="http://www.w3.org/2000/svg"><defs><linearGradient x1="50%" y1="100%" x2="50%" y2="-43.46%" id="a"><stop stop-color="#11A3EB" offset="0%"/><stop stop-color="#24BDFD" offset="100%"/></linearGradient></defs><g transform="translate(.5 .5)" fill="none" fill-rule="evenodd"><ellipse fill="url(#a)" cx="20" cy="20" rx="20" ry="20"/><path d="M27.765 18.353s-3.772-5.587-3.835-5.673l.979-.164-.08-1.939-.919-.224-1.774 1.24-1.9.005m5.411 8.167c-.722.327-2.588 3.655-2.588 3.655H8.295l-1.236-2.157 3.514-3.851h4.779m6.53-3.294l1.883 3.294-2.589 3.53H16l2.244-2.9.862.02s.724-1.691-1.563-2.965l-7.66-.036m14.588 7.998h1.607s.773-1.773 2.217-1.773 2.197.181 2.197.181l1.037-.318s-.447-1.955-3.397-2.796m3.521 4.235c.222.445.347.95.347 1.487 0 1.778-1.376 3.22-3.074 3.22-1.55 0-2.83-1.2-3.044-2.76m-10.823.848c-.504 1.245-1.71 2.048-3.022 1.892-1.618-.193-2.785-1.52-2.607-3.275" stroke="#FFF" stroke-width="1.176" stroke-linecap="round" stroke-linejoin="round"/></g></svg>
