<svg width="44" height="50" viewBox="0 0 44 50" xmlns="http://www.w3.org/2000/svg" xmlns:xlink="http://www.w3.org/1999/xlink"><defs><linearGradient x1="50%" y1="8.319%" x2="50%" y2="100%" id="c"><stop stop-color="#FEC946" offset="0%"/><stop stop-color="#FFB91F" offset="100%"/></linearGradient><path d="M26.764 42h14.533A2.706 2.706 0 0 0 44 39.293V2.707A2.705 2.705 0 0 0 41.297 0H2.703A2.706 2.706 0 0 0 0 2.707v36.586A2.705 2.705 0 0 0 2.703 42h14.533l4.242 6.867c.288.467.757.464 1.044 0L26.764 42z" id="a"/><mask id="b" x="0" y="0" width="44" height="49.216" fill="#fff"><use xlink:href="#a"/></mask></defs><g fill="none" fill-rule="evenodd"><use stroke="#F2A81D" mask="url(#b)" stroke-width="2" fill="url(#c)" xlink:href="#a"/><path d="M31 15.783l-8.848 4.782-5.552-2.922m11.306-3.67L22 11l-9 5.05v9.9L22 31l9-5.05v-9.9m-8.775 4.848v6.087" stroke="#FFF" stroke-width="1.25" stroke-linecap="round" stroke-linejoin="round"/></g></svg>
