<svg width="43" height="43" viewBox="0 0 43 43" xmlns="http://www.w3.org/2000/svg"><defs><linearGradient x1="50%" y1="100%" x2="50%" y2="-43.46%" id="a"><stop stop-color="#11A3EB" offset="0%"/><stop stop-color="#24BDFD" offset="100%"/></linearGradient></defs><g transform="translate(.5 .5)" fill="none" fill-rule="evenodd"><ellipse fill="url(#a)" cx="20" cy="20" rx="20" ry="20"/><path d="M14.384 29.74l-.358 1.005h-2.238v-6.926l.879-4.818.541-7.306s.057-2.283 2.138-2.283h9.144c2.185 0 2.3 2.236 2.3 2.236l.574 7.444.866 4.727v6.926h-2.323l-.266-1.142-11.257.138zm-.85-2.396l1.486.314h9.625l1.886-.364M12.578 18.25h-1.785v-1.52m16.629 1.52h1.785v-1.52m-15.616 6.53l2.02.325.068.913m10.736-1.237l-2.02.324-.101.974m-6.854-.982c0 .08.161 2.01.161 2.01h4.8l.178-2.01h-5.14zm9.492-9.449s-2.152-.82-6.9-.82c-4.601 0-6.727.82-6.727.82m2.224 6.108h8.746-8.746z" stroke="#FDFEFF" stroke-width="1.176" stroke-linecap="round" stroke-linejoin="round"/></g></svg>
